<?xml version="1.0" standalone="no"?>
<!DOCTYPE svg PUBLIC "-//W3C//DTD SVG 20010904//EN"
 "http://www.w3.org/TR/2001/REC-SVG-20010904/DTD/svg10.dtd">
<svg version="1.0" xmlns="http://www.w3.org/2000/svg"
 width="365.000000pt" height="210.000000pt" viewBox="0 0 365.000000 210.000000"
 preserveAspectRatio="xMidYMid meet">

<g transform="translate(0.000000,210.000000) scale(0.100000,-0.100000)"
fill="#000000" stroke="none">
<path d="M1800 2005 c0 -7 8 -18 18 -24 9 -5 17 -13 17 -18 0 -4 9 -7 20 -6
16 1 16 1 3 -3 -10 -3 -18 -8 -18 -11 0 -2 24 -38 53 -78 28 -41 156 -225 282
-409 127 -184 232 -335 235 -336 6 0 76 110 139 216 l42 72 -38 60 c-21 33
-60 94 -86 136 -26 42 -52 74 -57 71 -6 -3 -7 1 -4 9 4 9 -1 18 -10 22 -9 3
-14 9 -12 13 2 3 -7 20 -21 36 -17 21 -21 23 -14 8 7 -13 8 -23 4 -23 -4 0 -2
-5 5 -12 17 -17 15 -27 -5 -24 -12 2 -17 10 -15 26 2 14 0 20 -7 16 -7 -4 -11
1 -11 13 0 11 -5 23 -10 26 -6 4 -10 3 -9 -2 7 -38 -13 -43 -29 -7 -7 14 -17
22 -22 19 -5 -3 -19 3 -31 14 -12 11 -26 18 -30 15 -10 -6 -63 20 -98 47 -13
11 -35 19 -48 19 -16 0 -27 7 -30 19 -5 20 -38 25 -60 9 -7 -6 -14 -4 -19 3
-4 7 -3 9 4 5 6 -3 13 -2 17 3 3 6 -5 15 -17 22 -13 7 -26 17 -30 23 -5 8 -8
7 -8 -1 0 -7 -4 -13 -10 -13 -5 0 -7 7 -4 15 5 11 -1 15 -22 16 l-29 1 29 9
c18 5 34 5 41 -1 8 -7 12 -5 12 5 0 12 -14 15 -59 15 -44 0 -58 -3 -58 -15z"/>
<path d="M3323 2013 c30 -5 36 -18 11 -27 -8 -3 -13 -10 -9 -16 7 -11 -20 -57
-49 -83 -11 -9 -20 -25 -21 -35 0 -10 -11 -28 -23 -40 -12 -12 -19 -28 -16
-37 7 -18 -12 -21 -19 -2 -4 7 -8 3 -12 -10 -14 -46 -53 -108 -75 -119 -13 -7
-18 -14 -11 -19 7 -4 0 -17 -19 -36 -16 -17 -30 -35 -30 -41 0 -6 -6 -8 -13
-5 -8 3 -18 -8 -26 -27 -37 -87 -65 -136 -81 -141 -10 -3 -30 -16 -45 -29 -20
-17 -24 -26 -14 -31 9 -6 7 -10 -9 -16 -12 -5 -22 -17 -22 -27 0 -11 -19 -39
-42 -63 -23 -23 -46 -57 -52 -74 -6 -17 -14 -31 -17 -30 -11 0 -69 -73 -69
-89 0 -9 -7 -16 -15 -16 -8 0 -15 -9 -15 -19 0 -11 -5 -23 -12 -27 -7 -5 -8
-3 -3 6 5 9 4 11 -4 6 -6 -4 -9 -12 -6 -17 12 -18 -7 -9 -27 14 -19 22 399
-607 519 -780 l64 -93 200 0 c187 0 199 1 190 17 -5 10 -75 112 -156 228 -81
116 -151 219 -156 230 -4 11 -84 128 -177 259 l-168 239 57 85 c32 47 56 89
52 95 -3 6 -1 7 4 4 14 -8 86 100 77 115 -4 6 -3 8 4 4 10 -6 137 165 154 207
4 10 73 112 153 226 80 115 145 212 145 215 0 3 -55 5 -122 5 -68 -1 -111 -4
-95 -6z m-689 -1089 c3 -8 2 -12 -4 -9 -6 3 -10 10 -10 16 0 14 7 11 14 -7z"/>
<path d="M980 1975 c0 -5 5 -17 10 -25 5 -8 10 -10 10 -5 0 6 -5 17 -10 25 -5
8 -10 11 -10 5z"/>
<path d="M1022 1885 c6 -20 60 -161 89 -230 104 -253 605 -1386 624 -1411 93
-122 144 -146 320 -151 l130 -4 138 206 c79 117 135 210 131 217 -4 6 -3 8 3
5 6 -4 22 11 37 33 14 22 24 40 21 40 -3 0 13 27 35 60 29 43 36 60 25 60 -8
0 -15 5 -15 11 0 5 5 7 12 3 6 -4 3 4 -8 18 -10 15 -21 22 -23 16 -2 -6 1 -13
7 -17 7 -4 8 -12 2 -21 -5 -8 -5 -19 0 -25 4 -6 2 -15 -6 -23 -12 -11 -13 -9
-11 10 1 13 -3 22 -10 21 -6 -2 -11 7 -10 18 1 19 2 19 14 3 7 -10 13 -13 13
-8 0 15 -22 34 -38 34 -9 0 -12 -6 -8 -16 5 -14 4 -15 -9 -4 -8 7 -14 18 -14
24 6 35 -42 65 -54 34 -3 -8 -6 -5 -6 5 -1 12 -6 16 -13 11 -10 -5 -10 -4 -1
6 6 7 9 19 6 28 -4 9 -2 13 4 9 5 -3 10 0 10 8 0 11 -4 12 -14 4 -9 -8 -14 -7
-19 4 -5 13 -9 14 -25 4 -10 -6 -19 -19 -19 -27 0 -13 -2 -13 -9 -1 -10 16 -3
44 9 36 4 -3 13 1 19 9 9 10 8 15 -3 19 -9 4 -63 -64 -171 -219 -87 -124 -161
-226 -164 -228 -7 -5 -208 438 -222 488 -5 17 -19 54 -32 81 -13 28 -48 103
-77 168 -29 64 -57 117 -62 117 -5 0 -6 5 -2 12 5 7 3 8 -5 4 -7 -5 -10 -14
-7 -21 3 -10 -31 -35 -49 -35 -15 0 -2 30 13 31 13 0 14 2 2 6 -8 3 -19 12
-23 20 -6 10 -17 13 -33 9 -19 -5 -24 -2 -24 12 0 10 -5 23 -11 29 -16 16 -1
35 23 27 16 -5 19 -3 12 7 -6 12 -5 12 8 1 13 -10 17 -10 22 3 3 9 1 25 -5 36
-6 11 -8 25 -5 32 2 7 5 5 5 -4 1 -9 8 -23 17 -30 13 -10 11 -3 -6 31 -12 25
-24 47 -25 48 -2 2 -3 -14 -3 -35 0 -55 -1 -60 -12 -43 -6 9 -10 11 -10 3 0
-22 -30 -2 -30 21 0 15 -17 31 -57 56 -30 19 -62 35 -70 36 -21 3 -44 25 -54
52 -5 13 -13 20 -19 17 -14 -9 -59 27 -60 47 0 15 -6 17 -34 13 -22 -4 -39 -1
-48 8 -7 8 -21 13 -31 11 -9 -1 -15 2 -11 7 3 5 10 7 15 4 5 -4 9 1 9 10 0 11
-5 15 -16 11 -10 -4 -13 -2 -8 6 4 7 3 8 -4 4 -7 -4 -12 -2 -12 5 0 7 9 9 23
6 20 -5 20 -5 5 7 -10 7 -15 16 -11 20 4 4 0 4 -10 0 -9 -3 -17 -2 -18 2 -3
48 -8 76 -13 81 -3 4 -6 -2 -6 -13 -1 -16 -3 -15 -16 6 -8 14 -14 20 -12 15z
m503 -575 c4 -6 11 -8 16 -5 5 4 9 1 9 -4 0 -6 -4 -11 -9 -11 -17 0 -41 12
-41 21 0 12 17 11 25 -1z m855 -475 c5 3 11 1 14 -4 3 -5 -2 -11 -12 -13 -13
-4 -18 1 -19 16 -1 12 1 15 4 8 3 -6 9 -10 13 -7z"/>
<path d="M2311 1823 c7 -12 15 -20 18 -17 3 2 -3 12 -13 22 -17 16 -18 16 -5
-5z"/>
<path d="M1151 1721 c-10 -7 -10 -10 -1 -16 6 -4 16 -3 22 3 13 13 -4 23 -21
13z"/>
<path d="M1500 1591 c0 -6 4 -13 10 -16 6 -3 7 1 4 9 -7 18 -14 21 -14 7z"/>
<path d="M1560 1370 c0 -5 5 -10 10 -10 6 0 10 5 10 10 0 6 -4 10 -10 10 -5 0
-10 -4 -10 -10z"/>
<path d="M1585 1330 c-3 -5 -1 -10 4 -10 6 0 11 5 11 10 0 6 -2 10 -4 10 -3 0
-8 -4 -11 -10z"/>
<path d="M891 1125 c-6 -25 -20 -59 -30 -76 -11 -18 -17 -39 -13 -47 3 -9 1
-13 -5 -9 -6 4 -22 -5 -34 -19 -54 -60 -66 -71 -79 -76 -10 -3 -11 -8 0 -27 9
-18 9 -22 0 -16 -9 5 -10 1 -5 -16 7 -22 7 -22 -9 -6 -22 21 -22 21 -53 -3
-14 -11 -21 -20 -15 -20 6 0 -36 -47 -93 -105 -57 -57 -106 -114 -110 -125 -3
-11 -13 -20 -21 -20 -8 0 -17 -7 -20 -15 -4 -8 -12 -15 -20 -15 -8 0 -14 -6
-14 -13 0 -8 -11 -27 -25 -43 -14 -16 -25 -36 -25 -45 0 -12 -7 -15 -25 -11
-14 2 -22 9 -18 15 3 6 1 7 -5 3 -8 -5 -12 1 -12 14 0 12 3 19 8 17 4 -3 8 7
9 21 1 25 0 25 -17 -8 -10 -19 -16 -38 -13 -42 2 -5 -1 -8 -6 -8 -6 0 -11 -5
-11 -11 0 -8 4 -9 13 0 21 17 29 0 11 -20 -9 -10 -18 -29 -19 -41 -1 -13 -3
-30 -4 -38 -1 -12 -3 -13 -10 -1 -6 9 -10 10 -16 2 -4 -7 -1 -20 6 -29 12 -16
12 -16 -5 -1 -15 14 -16 21 -6 38 6 12 16 18 22 15 7 -4 8 -3 4 4 -4 6 -2 21
4 32 6 11 7 20 3 20 -11 0 -104 -199 -106 -227 -1 -11 -5 -20 -8 -18 -3 2 -12
-12 -21 -31 l-16 -34 188 0 187 0 39 62 c59 96 151 180 247 228 117 57 179 70
332 70 71 0 146 4 164 10 78 22 130 109 116 193 -9 50 -76 121 -124 130 -19 4
-130 7 -247 7 -118 0 -214 2 -214 5 0 3 12 29 26 57 21 41 24 56 15 70 -15 25
-14 36 2 14 12 -16 17 -10 44 60 34 87 57 164 50 170 -2 3 -10 -16 -16 -41z
m-693 -859 c-2 -1 -12 -8 -22 -16 -18 -14 -18 -14 -6 7 8 12 18 19 23 16 4 -3
7 -6 5 -7z"/>
<path d="M2361 936 c-8 -10 -9 -16 -1 -21 6 -4 9 -1 8 7 -2 7 3 12 10 10 8 -1
11 2 7 8 -8 13 -10 13 -24 -4z"/>
<path d="M2462 891 c12 -22 24 -38 26 -36 5 4 -37 75 -44 75 -3 0 6 -18 18
-39z"/>
<path d="M2500 845 c0 -5 5 -17 10 -25 5 -8 10 -10 10 -5 0 6 -5 17 -10 25 -5
8 -10 11 -10 5z"/>
<path d="M2466 811 c16 -33 28 -42 17 -14 -4 11 -3 14 5 9 8 -5 10 -2 6 9 -4
9 -9 13 -12 11 -3 -3 -11 -1 -18 5 -10 8 -9 2 2 -20z"/>
</g>
</svg>
